<?xml version='1.0' encoding='utf-8'?>
<svg xmlns="http://www.w3.org/2000/svg" viewBox="1600 0 100 90"><defs>
    <linearGradient id="weather-sun-fill" x1="0" y1="0" x2="0" y2="1">
      <stop offset="0" stop-color="#fff8c6" /><stop offset=".4" stop-color="#ffd54f" /><stop offset="1" stop-color="#f57c00" />
    </linearGradient>
    <linearGradient id="weather-cloud-fill" x1="0" y1="0" x2="0" y2="1">
      <stop offset="0" stop-color="#ffffff" /><stop offset=".55" stop-color="#eef4f7" /><stop offset="1" stop-color="#b9c7cf" />
    </linearGradient>
    <linearGradient id="weather-cloud-back" x1="0" y1="0" x2="0" y2="1">
      <stop offset="0" stop-color="#e8eef2" /><stop offset="1" stop-color="#8fa3ae" />
    </linearGradient>
    <linearGradient id="weather-storm-fill" x1="0" y1="0" x2="0" y2="1">
      <stop offset="0" stop-color="#78909c" /><stop offset="1" stop-color="#263238" />
    </linearGradient>
    <linearGradient id="weather-moon-fill" x1="0" y1="0" x2="0" y2="1">
      <stop offset="0" stop-color="#ffffff" /><stop offset="1" stop-color="#aebcc4" />
    </linearGradient>
    
    <radialGradient id="weather-hurricane-cloud" gradientUnits="userSpaceOnUse" cx="0" cy="0" r="26">
      <stop offset=".18" stop-color="#37474f" /><stop offset=".62" stop-color="#546e7a" /><stop offset="1" stop-color="#90a4ae" />
    </radialGradient>
    
  </defs>
  
  <g><rect x="1643" y="65" width="3.5" height="9" rx="1.7" fill="#29b6f6" stroke="#b3e5fc" stroke-width=".35" /><path d="M1641 69h7" stroke="#b3e5fc" stroke-width=".35" stroke-linecap="round" fill="#29b6f6" /><rect x="1655" y="65" width="3.5" height="9" rx="1.7" fill="#29b6f6" stroke="#b3e5fc" stroke-width=".35" /><path d="M1653 69h7" stroke="#b3e5fc" stroke-width=".35" stroke-linecap="round" fill="#29b6f6" /><rect x="1667" y="65" width="3.5" height="9" rx="1.7" fill="#29b6f6" stroke="#b3e5fc" stroke-width=".35" /><path d="M1665 69h7" stroke="#b3e5fc" stroke-width=".35" stroke-linecap="round" fill="#29b6f6" /></g>
    <path d="M1672 44a16.5 16.5 0 0 0-30.7-7.7 19.3 19.3 0 0 0-4.3-.5 19.2 19.2 0 0 0-14 32.3H1672a16.5 16.5 0 0 0 0-33z" fill="#90a4ae" stroke="#cfd8dc" stroke-width=".8" />
  </svg>